 <svg  version="1.0" xmlns="http://www.w3.org/2000/svg"  width="127.000000pt" height="196.000000pt" viewBox="0 0 127.000000 196.000000"  preserveAspectRatio="xMidYMid meet">  <g transform="translate(0.000000,196.000000) scale(0.100000,-0.100000)" fill="#dd725f" stroke="none"> <path d="M56 1902 c-32 -63 -46 -144 -46 -264 0 -81 5 -114 30 -191 l30 -93 -22 -60 c-18 -49 -22 -81 -23 -190 l0 -131 48 -97 c27 -53 83 -142 125 -197 145 -188 190 -253 249 -358 72 -131 160 -224 260 -273 62 -30 75 -33 163 -33 85 0 102 3 160 31 124 59 202 164 222 302 6 43 9 86 5 95 -9 24 -43 21 -61 -5 -20 -28 -20 -48 -1 -48 8 0 15 -4 15 -10 0 -13 -17 -13 -25 0 -4 6 -21 -2 -43 -21 -89 -79 -207 -101 -287 -55 -41 24 -92 89 -154 194 -17 29 -31 56 -31 60 0 5 15 6 34 4 51 -6 135 15 217 54 141 68 259 224 294 389 23 111 18 179 -21 301 -16 49 -16 53 5 115 33 99 47 232 33 321 -22 140 -51 198 -97 198 -30 0 -255 -113 -350 -175 -62 -41 -72 -45 -98 -35 -39 13 -81 13 -128 -1 -37 -12 -41 -10 -116 38 -154 100 -310 183 -342 183 -15 0 -28 -15 -45 -48z m312 -146 c46 -28 97 -60 114 -70 27 -17 35 -18 84 -6 44 11 65 11 110 1 53 -12 58 -12 83 8 35 28 198 120 294 168 76 37 79 37 92 19 8 -10 22 -53 31 -94 22 -98 14 -217 -22 -336 l-27 -90 23 -70 c31 -95 37 -194 16 -276 -41 -164 -134 -283 -274 -353 l-86 -42 -117 0 -117 1 18 -26 c10 -14 47 -75 83 -136 72 -121 141 -194 201 -214 84 -27 217 9 295 80 18 17 35 29 38 27 2 -2 -6 -30 -17 -61 -31 -82 -86 -146 -161 -186 -60 -33 -70 -35 -154 -35 -79 0 -97 4 -150 29 -78 38 -171 132 -219 221 -58 106 -139 226 -225 334 -92 116 -165 231 -193 303 -30 81 -27 223 8 324 l26 77 -26 76 c-14 42 -31 101 -36 131 -14 75 2 234 29 295 l21 47 87 -47 c49 -26 125 -70 171 -99z"/> <path d="M535 1426 c-69 -17 -110 -40 -162 -92 -82 -83 -112 -203 -79 -319 14 -45 29 -69 70 -110 80 -80 122 -98 241 -103 125 -5 189 16 258 84 99 97 132 232 84 337 -49 108 -140 181 -255 206 -65 13 -92 13 -157 -3z m212 -66 c58 -25 136 -101 159 -155 30 -74 6 -192 -56 -267 -16 -20 -53 -48 -82 -62 -44 -22 -65 -26 -143 -26 -78 0 -99 4 -143 26 -61 30 -128 102 -142 153 -43 154 49 311 205 352 49 13 146 3 202 -21z"/> </g> </svg> 